#!OML:ASF E:\Steps\Project 1\Capture day 1\Session 2\Subject.ASF
:FULLY-SPECIFIED
:DEGREES
244
root 12.6387 15.7754 16.2406 -173.031 -2.11412 172.615
lowerback -17.7801 1.55338 7.7818
upperback 3.33345 0.248026 0.097325
thorax 13.9036 0.734776 -4.24855
lowerneck 0.179035 5.83608 0.150009
upperneck 17.0331 7.36866 -2.95751
head 5.21329 3.01642 -0.652062
rclavicle -9.74045e-015 -4.77083e-014
rhumerus -37.4187 -0.965235 -70.5203
rradius 57.6409
rwrist -8.79906
rhand -3.80477 -59.5917
rfingers 7.12502
rthumb 21.9414 -88.3674
lclavicle -9.74045e-015 -4.77083e-014
lhumerus -43.592 11.2011 64.2593
lradius 24.1727
lwrist -1.94806
lhand -17.6542 -12.5363
lfingers 7.12502
lthumb 8.60403 17.2684
rfemur 3.11875 6.67914 4.31475
rtibia 42.567
rfoot -44.6243 -12.1104
rtoes -50.0309
lfemur -38.607 -6.26011 17.2112
ltibia 10.8862
lfoot 18.2398 23.1132
ltoes -6.91981
245
root 12.5217 15.733 16.1578 -172.783 -1.87556 172.719
lowerback -17.4931 1.53259 7.84229
upperback 3.35573 0.235715 0.0779501
thorax 13.7572 0.73035 -4.30793
lowerneck 0.122272 5.93824 0.118883
upperneck 16.8599 7.51515 -2.858
head 5.1668 3.10638 -0.608804
rclavicle 2.44505e-014 1.43125e-014
rhumerus -36.9882 -0.79177 -70.6348
rradius 57.7195
rwrist -9.00284
rhand -2.69212 -59.6594
rfingers 7.12502
rthumb 23.0094 -88.306
lclavicle 2.44505e-014 1.43125e-014
lhumerus -43.6604 10.4563 64.3445
lradius 24.8102
lwrist -0.71443
lhand -17.934 -11.9236
lfingers 7.12502
lthumb 8.33406 17.892
rfemur 3.22949 6.94701 3.88548
rtibia 42.4978
rfoot -44.6021 -11.8098
rtoes -50.2499
lfemur -38.7012 -6.34985 17.3552
ltibia 10.8567
lfoot 19.2496 22.54
ltoes -10.5194
246
root 12.3998 15.6857 16.0718 -172.434 -1.88459 172.923
lowerback -17.3124 1.43504 7.97627
upperback 3.34066 0.0917621 0.0801171
thorax 13.613 0.668259 -4.42315
lowerneck 0.0938454 6.0694 0.10386
upperneck 16.6721 7.69924 -2.7603
head 5.11228 3.21605 -0.56819
rclavicle -5.76476e-015 -3.49861e-014
rhumerus -36.476 -0.698563 -70.819
rradius 57.6147
rwrist -8.99019
rhand -5.38538 -55.1849
rfingers 7.12502
rthumb 20.4231 -84.1309
lclavicle -5.76476e-015 -3.49861e-014
lhumerus -43.6655 10.1803 64.1049
lradius 25.2196
lwrist -0.0105655
lhand -18.0643 -12.0014
lfingers 7.12502
lthumb 8.20831 17.8192
rfemur 3.32878 6.99979 3.54336
rtibia 42.3445
rfoot -44.4408 -12.0458
rtoes -51.1577
lfemur -39.137 -6.29835 17.4635
ltibia 10.9929
lfoot 20.7173 21.518
ltoes -15.6026
247
root 12.2805 15.6385 15.9824 -172.02 -1.76359 173.03
lowerback -17.2964 1.41636 7.90153
upperback 3.35491 0.0831626 0.0909168
thorax 13.6175 0.658321 -4.37075
lowerneck 0.0754486 6.15094 0.0379864
upperneck 16.6219 7.80425 -2.64484
head 5.09443 3.2758 -0.517053
rclavicle 2.78299e-015 2.8625e-014
rhumerus -36.2008 -0.526212 -70.9408
rradius 57.8437
rwrist -9.06246
rhand -5.35765 -51.8271
rfingers 7.12502
rthumb 20.4497 -80.7702
lclavicle 2.78299e-015 2.8625e-014
lhumerus -43.5257 10.0602 63.8798
lradius 25.5116
lwrist 0.368119
lhand -18.1434 -12.6449
lfingers 7.12502
lthumb 8.13198 17.1787
rfemur 3.29297 7.12568 3.0895
rtibia 42.2643
rfoot -44.2912 -12.2589
rtoes -52.1809
lfemur -39.4973 -6.06998 17.3872
ltibia 11.0679
lfoot 21.238 21.4383
ltoes -15.2409
248
root 12.1606 15.5913 15.8936 -171.614 -1.63234 173.091
lowerback -17.2448 1.39593 7.69484
upperback 3.40333 0.102672 0.113524
thorax 13.6422 0.652015 -4.22152
lowerneck -0.0201173 6.06163 0.0552404
upperneck 16.5568 7.68589 -2.58845
head 5.08671 3.22886 -0.505301
rclavicle 4.17448e-015 3.18055e-014
rhumerus -36.0996 -0.302939 -71.0124
rradius 58.3361
rwrist -9.23249
rhand -5.07668 -57.7244
rfingers 7.12502
rthumb 20.7197 -86.6383
lclavicle 4.17448e-015 3.18055e-014
lhumerus -43.3441 9.69527 63.875
lradius 25.889
lwrist 1.04678
lhand -18.3746 -13.0023
lfingers 7.12502
lthumb 7.90882 16.8297
rfemur 3.28396 7.33467 2.60269
rtibia 42.2831
rfoot -44.3063 -11.7148
rtoes -52.4239
lfemur -39.836 -5.96039 17.2644
ltibia 11.2189
lfoot 21.211 22.001
ltoes -11.8331
249
root 12.0368 15.5456 15.8025 -171.257 -1.52583 173.113
lowerback -17.0834 1.31088 7.41054
upperback 3.45291 0.0643128 0.130292
thorax 13.5928 0.610487 -4.05106
lowerneck -0.141934 5.87464 0.115727
upperneck 16.3932 7.43992 -2.53616
head 5.05268 3.12733 -0.507778
rclavicle -3.37934e-015 1.59028e-015
rhumerus -35.9998 -0.160462 -71.0802
rradius 58.7942
rwrist -9.28474
rhand -3.86148 -63.4573
rfingers 7.12502
rthumb 21.887 92.2393
lclavicle -3.37934e-015 1.59028e-015
lhumerus -43.1905 9.42876 63.7766
lradius 26.2123
lwrist 1.64313
lhand -18.4508 -13.1898
lfingers 7.12502
lthumb 7.83528 16.645
rfemur 3.40743 7.54463 2.01625
rtibia 42.0814
rfoot -44.1888 -10.9928
rtoes -52.3055
lfemur -40.1802 -6.03637 17.0532
ltibia 11.5545
lfoot 21.4854 22.3611
ltoes -10.622
250
root 11.9171 15.4877 15.7273 -170.401 -1.62293 173.39
lowerback -17.1539 1.22683 7.21636
upperback 3.32137 -0.023069 0.243604
thorax 13.4657 0.538964 -3.83863
lowerneck -0.322578 5.66269 0.0534463
upperneck 16.2307 7.15525 -2.37375
head 5.01973 3.00676 -0.456843
rclavicle 1.19271e-015 -3.18055e-014
rhumerus -35.8085 -0.164814 -71.145
rradius 59.1041
rwrist -9.21992
rhand 0.790366 -69.4248
rfingers 7.12502
rthumb 26.3472 97.6145
lclavicle 1.19271e-015 -3.18055e-014
lhumerus -42.9097 9.04273 63.7307
lradius 26.4763
lwrist 2.25952
lhand -18.4331 -13.0204
lfingers 7.12502
lthumb 7.8523 16.8138
rfemur 3.01244 7.47378 1.67667
rtibia 41.8382
rfoot -44.0905 -10.2497
rtoes -52.0704
lfemur -41.4044 -5.12737 16.8096
ltibia 12.5532
lfoot 22.6928 21.5398
ltoes -13.2128
251
root 11.785 15.4476 15.6323 -169.855 -1.28594 173.324
lowerback -17.1114 1.26904 6.8771
upperback 3.30686 0.125629 0.180182
thorax 13.4359 0.584402 -3.67452
lowerneck -0.428109 5.53719 -0.0598396
upperneck 16.1363 6.97193 -2.13789
head 4.99296 2.93257 -0.372283
rclavicle 1.98785e-016 -7.95139e-014
rhumerus -35.7485 -0.154543 -71.2147
rradius 59.3
rwrist -9.25997
rhand 5.12091 -74.8665
rfingers 7.12502
rthumb 30.4853 102.365
lclavicle 1.98785e-016 -7.95139e-014
lhumerus -42.6122 8.53829 63.7013
lradius 26.7188
lwrist 2.93491
lhand -18.2449 -12.5804
lfingers 7.12502
lthumb 8.03395 17.247
rfemur 2.89513 7.74567 0.80488
rtibia 41.4876
rfoot -43.8997 -9.49698
rtoes -52.0185
lfemur -41.8661 -4.6743 16.0901
ltibia 13.2872
lfoot 23.6015 21.1783
ltoes -15.1249
252
root 11.6506 15.3977 15.5401 -169.126 -0.999663 173.289
lowerback -17.2314 1.29928 6.59399
upperback 3.24443 0.242885 0.0565764
thorax 13.444 0.623568 -3.61939
lowerneck -0.460872 5.45273 -0.0599276
upperneck 15.9934 6.83302 -1.8638
head 4.94273 2.89152 -0.294712
rclavicle -3.97569e-016 3.33958e-014
rhumerus -35.7839 -0.143152 -71.3859
rradius 59.5845
rwrist -9.45772
rhand -0.468485 -65.3397
rfingers 7.12502
rthumb 25.1416 93.7041
lclavicle -3.97569e-016 3.33958e-014
lhumerus -42.3212 8.25273 63.4261
lradius 26.9505
lwrist 3.27472
lhand -18.0823 -12.5247
lfingers 7.12502
lthumb 8.19088 17.2965
rfemur 2.60942 7.89713 -0.0490935
rtibia 41.214
rfoot -43.6104 -9.20549
rtoes -52.5336
lfemur -42.6047 -3.95625 15.2485
ltibia 14.3406
lfoot 24.5893 20.3867
ltoes -17.6124
253
root 11.5185 15.3429 15.4476 -168.334 -0.879786 173.227
lowerback -17.3562 1.22633 6.21652
upperback 3.19491 0.243757 -0.0719616
thorax 13.4544 0.602246 -3.5492
lowerneck -0.636119 5.33921 -0.0325507
upperneck 15.8489 6.66825 -1.62837
head 4.91833 2.83861 -0.230496
rclavicle -7.15625e-015 -2.22639e-014
rhumerus -35.5298 -0.195521 -71.6655
rradius 59.8294
rwrist -9.44576
rhand -5.4341 -54.4682
rfingers 7.12502
rthumb 20.3763 -83.4191
lclavicle -7.15625e-015 -2.22639e-014
lhumerus -41.9901 7.80434 63.2176
lradius 27.226
lwrist 3.60116
lhand -18.4059 -12.9041
lfingers 7.12502
lthumb 7.87856 16.9291
rfemur 2.12672 7.90578 -0.870376
rtibia 41.2684
rfoot -43.5762 -8.92099
rtoes -53.0427
lfemur -43.6708 -3.24954 14.249
ltibia 15.9938
lfoot 24.8202 19.457
ltoes -18.5836
